<svg xmlns="http://www.w3.org/2000/svg" viewBox="0 0 48 48" fill="none">
  <defs>
    <linearGradient id="g" x1="0" y1="0" x2="1" y2="1">
      <stop offset="0%" stop-color="#3b82f6"/>
      <stop offset="100%" stop-color="#8b5cf6"/>
    </linearGradient>
  </defs>
  <rect rx="10" ry="10" width="48" height="48" fill="url(#g)"/>
  <g fill="#fff">
    <path d="M14 24a10 10 0 1 1 20 0v7a3 3 0 0 1-3 3h-2a3 3 0 0 1-3-3v-7a2 2 0 1 0-4 0v7a3 3 0 0 1-3 3h-2a3 3 0 0 1-3-3v-7z"/>
    <circle cx="24" cy="14" r="3"/>
  </g>
</svg>
